<?xml version="1.0" encoding="UTF-8" standalone="no"?>
<!-- Created with Inkscape (http://www.inkscape.org/) -->

<svg
   width="1000mm"
   height="1000mm"
   viewBox="0 0 1000 1000"
   version="1.1"
   id="svg1"
   xml:space="preserve"
   inkscape:version="1.4 (86a8ad7, 2024-10-11)"
   sodipodi:docname="happi360.svg"
   inkscape:export-filename="drawing.png"
   inkscape:export-xdpi="600"
   inkscape:export-ydpi="600"
   xmlns:inkscape="http://www.inkscape.org/namespaces/inkscape"
   xmlns:sodipodi="http://sodipodi.sourceforge.net/DTD/sodipodi-0.dtd"
   xmlns="http://www.w3.org/2000/svg"
   xmlns:svg="http://www.w3.org/2000/svg"><sodipodi:namedview
     id="namedview1"
     pagecolor="#ffffff"
     bordercolor="#000000"
     borderopacity="0.25"
     inkscape:showpageshadow="2"
     inkscape:pageopacity="0.0"
     inkscape:pagecheckerboard="0"
     inkscape:deskcolor="#d1d1d1"
     inkscape:document-units="mm"
     inkscape:zoom="0.18552013"
     inkscape:cx="1269.404"
     inkscape:cy="1608.9898"
     inkscape:window-width="1920"
     inkscape:window-height="1051"
     inkscape:window-x="-9"
     inkscape:window-y="-9"
     inkscape:window-maximized="1"
     inkscape:current-layer="svg1" /><defs
     id="defs1"><clipPath
       id="clip_0"><path
         transform="matrix(.24,0,0,.24,0,0)"
         d="M0 0H5906.25V5906.25H0Z"
         clip-rule="evenodd"
         id="path1" /></clipPath><clipPath
       id="clip_1"><path
         transform="matrix(.24,0,0,.24,0,0)"
         d="M0 0H5906.25V5906.25H0Z"
         clip-rule="evenodd"
         id="path2" /></clipPath><clipPath
       id="clip_2"><path
         transform="matrix(.24,0,0,.24,0,0)"
         d="M0 0H5906.25V5906.25H0Z"
         id="path3" /></clipPath><clipPath
       id="clip_3"><path
         transform="matrix(.24,0,0,.24,0,0)"
         d="M0 0H5906.25V5906.25H0Z"
         id="path4" /></clipPath><clipPath
       id="clip_4"><path
         transform="matrix(.24,0,0,.24,0,0)"
         d="M1146.9579 1806.3099H4760.243V5419.595H1146.9579Z"
         id="path5" /></clipPath><clipPath
       id="clip_5"><path
         transform="matrix(.24,0,0,.24,0,0)"
         d="M2953.6007 1806.3099C1955.8193 1806.3099 1146.9579 2615.1715 1146.9579 3612.9527 1146.9579 4610.734 1955.8193 5419.595 2953.6007 5419.595 3951.3819 5419.595 4760.243 4610.734 4760.243 3612.9527 4760.243 2615.1715 3951.3819 1806.3099 2953.6007 1806.3099Z"
         id="path6" /></clipPath><clipPath
       id="clip_6"><path
         transform="matrix(.24,0,0,.24,0,0)"
         d="M0 0H5906.25V5906.25H0Z"
         id="path7" /></clipPath><clipPath
       id="clip_7"><path
         transform="matrix(.24,0,0,.24,0,0)"
         d="M0 0H5906.25V5906.25H0Z"
         id="path8" /></clipPath><clipPath
       id="clip_8"><path
         transform="matrix(.24,0,0,.24,0,0)"
         d="M2015.0925 3027.3409H2526.0616V3538.3096H2015.0925Z"
         id="path9" /></clipPath><clipPath
       id="clip_9"><path
         transform="matrix(.24,0,0,.24,0,0)"
         d="M2270.577 3027.3409C2129.4769 3027.3409 2015.0925 3141.725 2015.0925 3282.8253 2015.0925 3423.9254 2129.4769 3538.3096 2270.577 3538.3096 2411.6773 3538.3096 2526.0616 3423.9254 2526.0616 3282.8253 2526.0616 3141.725 2411.6773 3027.3409 2270.577 3027.3409Z"
         id="path10" /></clipPath><clipPath
       id="clip_10"><path
         transform="matrix(.24,0,0,.24,0,0)"
         d="M0 0H5906.25V5906.25H0Z"
         id="path11" /></clipPath><clipPath
       id="clip_11"><path
         transform="matrix(.24,0,0,.24,0,0)"
         d="M0 0H5906.25V5906.25H0Z"
         id="path12" /></clipPath><clipPath
       id="clip_12"><path
         transform="matrix(.24,0,0,.24,0,0)"
         d="M3398.0736 3027.3409H3909.0426V3538.3096H3398.0736Z"
         id="path13" /></clipPath><clipPath
       id="clip_13"><path
         transform="matrix(.24,0,0,.24,0,0)"
         d="M3653.5579 3027.3409C3512.4578 3027.3409 3398.0736 3141.725 3398.0736 3282.8253 3398.0736 3423.9254 3512.4578 3538.3096 3653.5579 3538.3096 3794.6583 3538.3096 3909.0426 3423.9254 3909.0426 3282.8253 3909.0426 3141.725 3794.6583 3027.3409 3653.5579 3027.3409Z"
         id="path14" /></clipPath><clipPath
       id="clip_14"><path
         transform="matrix(.24,0,0,.24,0,0)"
         d="M0 0H5906.25V5906.25H0Z"
         id="path15" /></clipPath><clipPath
       id="clip_15"><path
         transform="matrix(.24,0,0,.24,0,0)"
         d="M0 0H5906.25V5906.25H0Z"
         id="path16" /></clipPath><clipPath
       id="clip_16"><path
         transform="matrix(.24,0,0,.24,0,0)"
         d="M2797.7513 486.65476H3109.4503V1424.1869H2797.7513Z"
         id="path17" /></clipPath><clipPath
       id="clip_17"><path
         transform="matrix(.24,0,0,.24,0,0)"
         d="M2953.6009 486.65476C2994.9346 486.65476 3034.5755 503.07456 3063.803 532.302 3093.0306 561.5295 3109.4503 601.1704 3109.4503 642.5043V1267.4872C3109.4503 1308.821 3093.0306 1348.4619 3063.803 1377.6893 3034.5755 1406.9169 2994.9346 1423.3367 2953.6009 1423.3367 2912.2669 1423.3367 2872.626 1406.9169 2843.3985 1377.6893 2814.1712 1348.4619 2797.7513 1308.821 2797.7513 1267.4872V642.5043C2797.7513 601.1704 2814.1712 561.5295 2843.3985 532.302 2872.626 503.07456 2912.2669 486.65476 2953.6009 486.65476Z"
         id="path18" /></clipPath><clipPath
       id="clip_18"><path
         transform="matrix(.24,0,0,.24,0,0)"
         d="M0 0H5906.25V5906.25H0Z"
         id="path19" /></clipPath><clipPath
       id="clip_19"><path
         transform="matrix(.24,0,0,.24,0,0)"
         d="M0 0H5906.25V5906.25H0Z"
         id="path20" /></clipPath><clipPath
       id="clip_20"><path
         transform="matrix(.24,0,0,.24,0,0)"
         d="M1079.3377 1073.8074 1334.6665 895.0242 1872.4129 1663.0056 1617.084 1841.7888 1079.3377 1073.8074Z"
         id="path21" /></clipPath><clipPath
       id="clip_21"><path
         transform="matrix(.24,0,0,.24,0,0)"
         d="M1207.0021 984.4158C1240.8609 960.70767 1282.7507 951.4209 1323.4567 958.5984 1364.1626 965.77597 1400.35 988.8299 1424.0581 1022.6886L1782.5336 1534.6447C1806.2417 1568.5034 1815.5286 1610.3933 1808.351 1651.0991 1801.1735 1691.8052 1778.1194 1727.9926 1744.2608 1751.7007 1710.4021 1775.4088 1668.5122 1784.6956 1627.8062 1777.5181 1587.1004 1770.3405 1550.9129 1747.2866 1527.2047 1713.4279L1168.7293 1201.4718C1145.0211 1167.613 1135.7344 1125.7232 1142.9119 1085.0172 1150.0895 1044.3113 1173.1433 1008.1239 1207.0021 984.4158Z"
         id="path22" /></clipPath><clipPath
       id="clip_22"><path
         transform="matrix(.24,0,0,.24,0,0)"
         d="M0 0H5906.25V5906.25H0Z"
         id="path23" /></clipPath><clipPath
       id="clip_23"><path
         transform="matrix(.24,0,0,.24,0,0)"
         d="M0 0H5906.25V5906.25H0Z"
         id="path24" /></clipPath><clipPath
       id="clip_24"><path
         transform="matrix(.24,0,0,.24,0,0)"
         d="M4570.3225 895.0465 4825.6516 1073.8297 4287.905 1841.811 4032.576 1663.0278 4570.3225 895.0465Z"
         id="path25" /></clipPath><clipPath
       id="clip_25"><path
         transform="matrix(.24,0,0,.24,0,0)"
         d="M4697.987 984.4381C4731.845 1008.14627 4754.8996 1044.3336 4762.077 1085.0396 4769.2546 1125.7455 4759.968 1167.6355 4736.26 1201.4942L4377.784 1713.4502C4354.076 1747.3088 4317.8889 1770.3628 4277.1828 1777.5403 4236.4768 1784.7179 4194.587 1775.4312 4160.728 1751.723 4126.869 1728.0149 4103.8156 1691.8274 4096.6379 1651.1216 4089.4603 1610.4157 4098.747 1568.5256 4122.455 1534.667L4480.9309 1022.71096C4504.6389 988.85226 4540.826 965.7983 4581.532 958.6207 4622.238 951.4432 4664.128 960.73 4697.987 984.4381Z"
         id="path26" /></clipPath><clipPath
       id="clip_26"><path
         transform="matrix(.24,0,0,.24,0,0)"
         d="M0 0H5906.25V5906.25H0Z"
         id="path27" /></clipPath><clipPath
       id="clip_27"><path
         transform="matrix(.24,0,0,.24,0,0)"
         d="M0 0H5906.25V5906.25H0Z"
         id="path28" /></clipPath><clipPath
       id="clip_28"><path
         transform="matrix(.24,0,0,.24,0,0)"
         d="M41.696405 2381.308 178.33625 2101.1549 1020.98458 2512.1419 884.3447 2792.2952 41.696405 2381.308Z"
         id="path29" /></clipPath><clipPath
       id="clip_29"><path
         transform="matrix(.24,0,0,.24,0,0)"
         d="M110.01633 2241.2315C128.1359 2204.0809 160.27136 2175.65 199.3533 2162.1929 238.43524 2148.7359 281.26225 2151.3553 318.41285 2169.4749L880.14376 2443.4493C917.2944 2461.5689 945.72549 2493.7044 959.1824 2532.7862 972.63949 2571.8682 970.02 2614.6954 951.90048 2651.8458 933.7809 2688.9967 901.64547 2717.4276 862.5634 2730.8846 823.48159 2744.3416 780.65457 2741.7222 743.5039 2723.6026L181.77301 2449.628C144.62238 2431.5086 116.19132 2399.373 102.73434 2360.291 89.27734 2321.2093 91.89676 2278.382 110.01633 2241.2315Z"
         id="path30" /></clipPath><clipPath
       id="clip_30"><path
         transform="matrix(.24,0,0,.24,0,0)"
         d="M0 0H5906.25V5906.25H0Z"
         id="path31" /></clipPath><clipPath
       id="clip_31"><path
         transform="matrix(.24,0,0,.24,0,0)"
         d="M0 0H5906.25V5906.25H0Z"
         id="path32" /></clipPath><clipPath
       id="clip_32"><path
         transform="matrix(.24,0,0,.24,0,0)"
         d="M5727.892 2101.19 5864.5319 2381.3433 5021.884 2792.33 4885.2438 2512.177 5727.892 2101.19Z"
         id="path33" /></clipPath><clipPath
       id="clip_33"><path
         transform="matrix(.24,0,0,.24,0,0)"
         d="M5796.212 2241.2667C5814.3317 2278.4173 5816.951 2321.2442 5803.494 2360.3262 5790.037 2399.408 5761.606 2431.5435 5724.4558 2449.663L5162.7248 2723.6378C5125.5739 2741.757 5082.747 2744.3765 5043.665 2730.9195 5004.583 2717.4625 4972.4475 2689.0316 4954.328 2651.8809 4936.2087 2614.7303 4933.589 2571.9034 4947.046 2532.8214 4960.503 2493.7393 4988.934 2461.604 5026.0847 2443.4844L5587.8156 2169.5098C5624.9665 2151.3905 5667.793 2148.771 5706.875 2162.2279 5745.957 2175.6849 5778.0925 2204.116 5796.212 2241.2667Z"
         id="path34" /></clipPath><clipPath
       id="clip_34"><path
         transform="matrix(.24,0,0,.24,0,0)"
         d="M0 0H5906.25V5906.25H0Z"
         clip-rule="evenodd"
         id="path35" /></clipPath></defs><g
     inkscape:label="Layer 1"
     inkscape:groupmode="layer"
     id="layer1" /><g
     id="g1"
     transform="translate(-27.315614,106.30567)"><path
       style="font-weight:bold;font-size:221.599px;font-family:Quicksand;-inkscape-font-specification:'Quicksand Bold';letter-spacing:-17.1979px;word-spacing:0px;fill:#a22134;stroke-width:0.332398"
       d="m 191.32982,455.28085 c 10.63675,0 18.68818,2.28986 24.15429,6.86957 5.61384,4.57971 9.45489,10.71062 11.52315,18.39272 2.06825,7.53437 3.10238,15.95513 3.10238,25.26228 v 56.72935 c 0,3.84105 -1.25573,7.09116 -3.76718,9.75035 -2.51145,2.51146 -5.68771,3.76719 -9.52876,3.76719 -3.84105,0 -7.0173,-1.25573 -9.52876,-3.76719 -2.51145,-2.65919 -3.76718,-5.9093 -3.76718,-9.75035 v -56.72935 c 0,-4.87517 -0.59093,-9.23329 -1.77279,-13.07434 -1.18186,-3.98878 -3.32398,-7.16503 -6.42637,-9.52875 -3.10239,-2.36373 -7.53437,-3.54559 -13.29594,-3.54559 -5.61384,0 -10.41515,1.18186 -14.40394,3.54559 -3.98878,2.36372 -7.0173,5.53997 -9.08556,9.52875 -1.92052,3.84105 -2.88078,8.19917 -2.88078,13.07434 v 56.72935 c 0,3.84105 -1.25573,7.09116 -3.76719,9.75035 -2.51145,2.51146 -5.6877,3.76719 -9.52875,3.76719 -3.84105,0 -7.01731,-1.25573 -9.52876,-3.76719 -2.51145,-2.65919 -3.76718,-5.9093 -3.76718,-9.75035 V 425.58659 c 0,-3.84105 1.25573,-7.01731 3.76718,-9.52876 2.51145,-2.65919 5.68771,-3.98878 9.52876,-3.98878 3.84105,0 7.0173,1.32959 9.52875,3.98878 2.51146,2.51145 3.76719,5.68771 3.76719,9.52876 v 54.95655 l -3.32399,-0.6648 c 1.32959,-2.51145 3.17625,-5.17064 5.53998,-7.97756 2.36372,-2.95465 5.24451,-5.68771 8.64236,-8.19917 3.39785,-2.51145 7.16504,-4.50584 11.30155,-5.98317 4.13651,-1.62506 8.64236,-2.43759 13.51754,-2.43759 z m 147.45026,0 c 3.84105,0 7.0173,1.25573 9.52875,3.76719 2.51146,2.51145 3.76719,5.76157 3.76719,9.75035 v 93.73638 c 0,3.84105 -1.25573,7.09116 -3.76719,9.75035 -2.51145,2.51146 -5.6877,3.76719 -9.52875,3.76719 -3.84105,0 -7.01731,-1.25573 -9.52876,-3.76719 -2.51145,-2.65919 -3.76718,-5.9093 -3.76718,-9.75035 v -10.85835 l 4.87518,1.99439 c 0,1.92053 -1.03413,4.28425 -3.10239,7.09117 -2.06826,2.65919 -4.87518,5.31837 -8.42076,7.97756 -3.54559,2.65919 -7.75597,4.94904 -12.63115,6.86957 -4.72744,1.77279 -9.89808,2.65919 -15.51193,2.65919 -10.19355,0 -19.42684,-2.58532 -27.69987,-7.75597 -8.27303,-5.31837 -14.84713,-12.55727 -19.72231,-21.7167 -4.72745,-9.30716 -7.09117,-19.94391 -7.09117,-31.91026 0,-12.11407 2.36372,-22.75082 7.09117,-31.91025 4.87518,-9.30716 11.37542,-16.54606 19.50071,-21.7167 8.1253,-5.31838 17.13699,-7.97757 27.03508,-7.97757 6.35251,0 12.18795,0.96026 17.50632,2.88079 5.31837,1.92053 9.89809,4.35812 13.73914,7.31277 3.98878,2.95465 7.0173,5.98317 9.08556,9.08556 2.21599,2.95465 3.32398,5.46611 3.32398,7.53436 l -7.97756,2.88079 v -16.17673 c 0,-3.84105 1.25573,-7.0173 3.76718,-9.52876 2.51145,-2.65919 5.68771,-3.98878 9.52876,-3.98878 z m -44.763,98.61156 c 6.50024,0 12.18795,-1.62506 17.06312,-4.87518 4.87518,-3.25012 8.64236,-7.6821 11.30155,-13.29594 2.80692,-5.61384 4.21038,-11.89248 4.21038,-18.83592 0,-7.09117 -1.40346,-13.44367 -4.21038,-19.05751 -2.65919,-5.61384 -6.42637,-10.04582 -11.30155,-13.29594 -4.87517,-3.25012 -10.56288,-4.87518 -17.06312,-4.87518 -6.35251,0 -11.96635,1.62506 -16.84152,4.87518 -4.87518,3.25012 -8.71623,7.6821 -11.52315,13.29594 -2.65919,5.61384 -3.98878,11.96634 -3.98878,19.05751 0,6.94344 1.32959,13.22208 3.98878,18.83592 2.80692,5.61384 6.64797,10.04582 11.52315,13.29594 4.87517,3.25012 10.48901,4.87518 16.84152,4.87518 z m 131.05189,-98.61156 c 10.34129,0 19.57458,2.65919 27.69987,7.97757 8.27303,5.17064 14.77327,12.33567 19.50072,21.4951 4.87517,9.15943 7.31276,19.79618 7.31276,31.91026 0,12.11407 -2.43759,22.82469 -7.31276,32.13185 -4.72745,9.15943 -11.15382,16.39833 -19.27912,21.7167 -7.97756,5.17065 -16.98925,7.75597 -27.03507,7.75597 -5.90931,0 -11.44928,-0.96026 -16.61993,-2.88079 -5.17064,-1.92053 -9.75035,-4.35812 -13.73914,-7.31277 -3.84105,-2.95465 -6.86957,-5.90931 -9.08556,-8.86396 -2.06825,-3.10239 -3.10238,-5.68771 -3.10238,-7.75596 l 6.86957,-2.88079 v 58.28054 c 0,3.84105 -1.25573,7.0173 -3.76719,9.52875 -2.51145,2.65919 -5.6877,3.98879 -9.52875,3.98879 -3.84105,0 -7.01731,-1.25573 -9.52876,-3.76719 -2.51145,-2.51145 -3.76718,-5.76157 -3.76718,-9.75035 V 471.01438 c 0,-3.84105 1.25573,-7.0173 3.76718,-9.52876 2.51145,-2.65919 5.68771,-3.98878 9.52876,-3.98878 3.84105,0 7.0173,1.32959 9.52875,3.98878 2.51146,2.51146 3.76719,5.68771 3.76719,9.52876 v 10.85835 l -3.76719,-1.99439 c 0,-1.92053 1.03413,-4.21038 3.10239,-6.86957 2.06826,-2.80692 4.87518,-5.53997 8.42076,-8.19916 3.54559,-2.80692 7.60824,-5.09678 12.18795,-6.86957 4.72744,-1.77279 9.67648,-2.65919 14.84713,-2.65919 z m -3.32399,24.37589 c -6.50023,0 -12.18794,1.62506 -17.06312,4.87518 -4.87518,3.25012 -8.71623,7.6821 -11.52315,13.29594 -2.65919,5.46611 -3.98878,11.74475 -3.98878,18.83592 0,6.94343 1.32959,13.29594 3.98878,19.05751 2.80692,5.61384 6.64797,10.04582 11.52315,13.29594 4.87518,3.25012 10.56289,4.87518 17.06312,4.87518 6.50024,0 12.11408,-1.62506 16.84153,-4.87518 4.87518,-3.25012 8.64236,-7.6821 11.30155,-13.29594 2.80692,-5.76157 4.21038,-12.11408 4.21038,-19.05751 0,-7.09117 -1.40346,-13.36981 -4.21038,-18.83592 -2.65919,-5.61384 -6.42637,-10.04582 -11.30155,-13.29594 -4.72745,-3.25012 -10.34129,-4.87518 -16.84153,-4.87518 z m 125.29033,-24.37589 c 10.34129,0 19.57458,2.65919 27.69987,7.97757 8.27303,5.17064 14.77327,12.33567 19.50072,21.4951 4.87517,9.15943 7.31276,19.79618 7.31276,31.91026 0,12.11407 -2.43759,22.82469 -7.31276,32.13185 -4.72745,9.15943 -11.15382,16.39833 -19.27912,21.7167 -7.97756,5.17065 -16.98925,7.75597 -27.03508,7.75597 -5.90931,0 -11.44928,-0.96026 -16.61992,-2.88079 -5.17064,-1.92053 -9.75035,-4.35812 -13.73914,-7.31277 -3.84105,-2.95465 -6.86957,-5.90931 -9.08556,-8.86396 -2.06825,-3.10239 -3.10238,-5.68771 -3.10238,-7.75596 l 6.86957,-2.88079 v 58.28054 c 0,3.84105 -1.25573,7.0173 -3.76719,9.52875 -2.51145,2.65919 -5.6877,3.98879 -9.52875,3.98879 -3.84105,0 -7.01731,-1.25573 -9.52876,-3.76719 -2.51145,-2.51145 -3.76718,-5.76157 -3.76718,-9.75035 V 471.01438 c 0,-3.84105 1.25573,-7.0173 3.76718,-9.52876 2.51145,-2.65919 5.68771,-3.98878 9.52876,-3.98878 3.84105,0 7.0173,1.32959 9.52875,3.98878 2.51146,2.51146 3.76719,5.68771 3.76719,9.52876 v 10.85835 l -3.76719,-1.99439 c 0,-1.92053 1.03413,-4.21038 3.10239,-6.86957 2.06826,-2.80692 4.87518,-5.53997 8.42076,-8.19916 3.54559,-2.80692 7.60824,-5.09678 12.18795,-6.86957 4.72744,-1.77279 9.67648,-2.65919 14.84713,-2.65919 z m -3.32399,24.37589 c -6.50023,0 -12.18794,1.62506 -17.06312,4.87518 -4.87518,3.25012 -8.71623,7.6821 -11.52315,13.29594 -2.65919,5.46611 -3.98878,11.74475 -3.98878,18.83592 0,6.94343 1.32959,13.29594 3.98878,19.05751 2.80692,5.61384 6.64797,10.04582 11.52315,13.29594 4.87518,3.25012 10.56289,4.87518 17.06312,4.87518 6.50024,0 12.11408,-1.62506 16.84153,-4.87518 4.87517,-3.25012 8.64236,-7.6821 11.30155,-13.29594 2.80692,-5.76157 4.21038,-12.11408 4.21038,-19.05751 0,-7.09117 -1.40346,-13.36981 -4.21038,-18.83592 -2.65919,-5.61384 -6.42638,-10.04582 -11.30155,-13.29594 -4.72745,-3.25012 -10.34129,-4.87518 -16.84153,-4.87518 z m 88.94806,82.87803 c 0,3.84105 -1.25573,7.09116 -3.76718,9.75035 -2.51145,2.51146 -5.68771,3.76719 -9.52876,3.76719 -3.84105,0 -7.0173,-1.25573 -9.52876,-3.76719 -2.51145,-2.65919 -3.76718,-5.9093 -3.76718,-9.75035 v -91.52039 c 0,-3.84105 1.25573,-7.0173 3.76718,-9.52876 2.51146,-2.65919 5.68771,-3.98878 9.52876,-3.98878 3.84105,0 7.01731,1.32959 9.52876,3.98878 2.51145,2.51146 3.76718,5.68771 3.76718,9.52876 z"
       id="text1"
       aria-label="happi"
       sodipodi:nodetypes="sccsscscsscssscsscscsscscscccscssssscscscccscsccsccssccccscssscscssscscsssccsccssccccscsssscscscccccssscscssccsccssccsccssccccscsssscscscccccssscscssccsccsscscsscscss" /><text
       xml:space="preserve"
       style="font-weight:bold;font-size:155.751px;font-family:Quicksand;-inkscape-font-specification:'Quicksand Bold';text-align:start;letter-spacing:2.37726px;word-spacing:0px;writing-mode:lr-tb;direction:ltr;text-anchor:start;vector-effect:non-scaling-stroke;fill:#a22134;stroke:none;stroke-width:0.233627;-inkscape-stroke:hairline"
       x="652.02191"
       y="575.4837"
       id="text2"
       transform="scale(1.0016813,0.99832152)"><tspan
         sodipodi:role="line"
         id="tspan2"
         style="font-style:normal;font-variant:normal;font-weight:bold;font-stretch:normal;font-family:Arvo;-inkscape-font-specification:'Arvo Bold';letter-spacing:2.37726px;fill:#f9ac19;fill-opacity:1;stroke:none;stroke-width:0.233627"
         x="652.02191"
         y="575.4837">360</tspan></text><g
       id="g3"
       transform="matrix(0.78252542,0,0,0.78252542,465.57414,-335.98733)"><g
         clip-path="url(#clip_2)"
         id="g41"
         transform="matrix(0.26458333,0,0,0.26458333,8.6230987,611.89299)"><g
           clip-path="url(#clip_3)"
           id="g40"><g
             clip-path="url(#clip_4)"
             id="g39"><g
               clip-path="url(#clip_5)"
               id="g38"><path
                 transform="matrix(3.387455,0,0,3.387455,275.2699,433.51438)"
                 d="M 0,0 H 256 V 256 H 0 Z"
                 fill="#f9ac19"
                 id="path38" /></g></g></g></g><g
         clip-path="url(#clip_6)"
         id="g45"
         transform="matrix(0.26458333,0,0,0.26458333,8.6230987,611.89299)"><g
           clip-path="url(#clip_7)"
           id="g44"><g
             clip-path="url(#clip_8)"
             id="g43"><g
               clip-path="url(#clip_9)"
               id="g42"><path
                 transform="matrix(0.47903333,0,0,0.47903333,483.6222,726.56179)"
                 d="M 0,0 H 256 V 256 H 0 Z"
                 fill="#a22134"
                 id="path41" /></g></g></g></g><g
         clip-path="url(#clip_10)"
         id="g49"
         transform="matrix(0.26458333,0,0,0.26458333,8.6230987,611.89299)"><g
           clip-path="url(#clip_11)"
           id="g48"><g
             clip-path="url(#clip_12)"
             id="g47"><g
               clip-path="url(#clip_13)"
               id="g46"><path
                 transform="matrix(0.47903333,0,0,0.47903333,815.5376,726.56179)"
                 d="M 0,0 H 256 V 256 H 0 Z"
                 fill="#a22134"
                 id="path45" /></g></g></g></g><g
         clip-path="url(#clip_14)"
         id="g53"
         transform="matrix(0.26458333,0,0,0.26458333,8.6230987,611.89299)"><g
           clip-path="url(#clip_15)"
           id="g52"><g
             clip-path="url(#clip_16)"
             id="g51"><g
               clip-path="url(#clip_17)"
               id="g50"><path
                 transform="matrix(0.29221783,0,0,0.29221783,671.46029,116.79714)"
                 d="M 0,0 H 256 V 769 H 0 Z"
                 fill="#f9ac19"
                 id="path49" /></g></g></g></g><g
         clip-path="url(#clip_18)"
         id="g57"
         transform="matrix(0.26458333,0,0,0.26458333,8.6230987,611.89299)"><g
           clip-path="url(#clip_19)"
           id="g56"><g
             clip-path="url(#clip_20)"
             id="g55"><g
               clip-path="url(#clip_21)"
               id="g54"><path
                 transform="matrix(0.23937081,-0.16760925,0.16760925,0.23937081,259.04103,257.71379)"
                 d="M 0,0 H 256 V 769 H 0 Z"
                 fill="#f9ac19"
                 id="path53" /></g></g></g></g><g
         clip-path="url(#clip_22)"
         id="g61"
         transform="matrix(0.26458333,0,0,0.26458333,8.6230987,611.89299)"><g
           clip-path="url(#clip_23)"
           id="g60"><g
             clip-path="url(#clip_24)"
             id="g59"><g
               clip-path="url(#clip_25)"
               id="g58"><path
                 transform="matrix(0.23937081,0.16760925,-0.16760925,0.23937081,1096.8773,214.81116)"
                 d="M 0,0 H 256 V 769 H 0 Z"
                 fill="#f9ac19"
                 id="path57" /></g></g></g></g><g
         clip-path="url(#clip_26)"
         id="g65"
         transform="matrix(0.26458333,0,0,0.26458333,8.6230987,611.89299)"><g
           clip-path="url(#clip_27)"
           id="g64"><g
             clip-path="url(#clip_28)"
             id="g63"><g
               clip-path="url(#clip_29)"
               id="g62"><path
                 transform="matrix(0.12809986,-0.2626436,0.2626436,0.12809986,10.007136,571.5139)"
                 d="M 0,0 H 256 V 769 H 0 Z"
                 fill="#f9ac19"
                 id="path61" /></g></g></g></g><g
         clip-path="url(#clip_30)"
         id="g69"
         transform="matrix(0.26458333,0,0,0.26458333,8.6230987,611.89299)"><g
           clip-path="url(#clip_31)"
           id="g68"><g
             clip-path="url(#clip_32)"
             id="g67"><g
               clip-path="url(#clip_33)"
               id="g66"><path
                 transform="matrix(0.12809986,0.2626436,-0.2626436,0.12809986,1374.6941,504.28559)"
                 d="M 0,0 H 256 V 769 H 0 Z"
                 fill="#f9ac19"
                 id="path65" /></g></g></g></g><g
         clip-path="url(#clip_34)"
         id="g70"
         transform="matrix(0.26458333,0,0,0.26458333,8.6230987,611.89299)"><path
           transform="matrix(0.750091,-0.0020355,0.0020355,0.750091,528.5953,932.7085)"
           stroke-width="80"
           stroke-linecap="round"
           stroke-miterlimit="4"
           stroke-linejoin="miter"
           fill="none"
           stroke="#a22134"
           d="m 57.09971,55.37165 c 122.00027,137.97833 244.00055,137.9477 366.00083,-0.09186"
           id="path69" /></g></g></g></svg>
